<?xml version="1.0" encoding="utf-8" standalone="no"?>
<!DOCTYPE svg PUBLIC "-//W3C//DTD SVG 1.1//EN"
  "http://www.w3.org/Graphics/SVG/1.1/DTD/svg11.dtd">
<!-- Created with matplotlib (https://matplotlib.org/) -->
<svg height="360pt" version="1.1" viewBox="0 0 360 360" width="360pt" xmlns="http://www.w3.org/2000/svg" xmlns:xlink="http://www.w3.org/1999/xlink">
 <defs>
  <style type="text/css">
*{stroke-linecap:butt;stroke-linejoin:round;}
  </style>
 </defs>
 <g id="figure_1">
  <g id="patch_1">
   <path d="M 0 360 
L 360 360 
L 360 0 
L 0 0 
z
" style="fill:#ffffff;"/>
  </g>
  <g id="axes_1">
   <g id="patch_2">
    <path d="M 45 315 
L 324 315 
L 324 43.2 
L 45 43.2 
z
" style="fill:#ffffff;"/>
   </g>
   <g id="matplotlib.axis_1">
    <g id="text_1">
     <!-- $\Re (H[w])$ -->
     <defs>
      <path d="M 57.296875 70.59375 
C 56.5 72 56.40625 72.09375 55 72.09375 
C 48.09375 72.09375 35.90625 69.296875 30.703125 60.765625 
C 29.203125 63.671875 24.296875 71 16.703125 71 
C 9.90625 71 5.5 64.671875 5.5 58.953125 
C 5.5 55.140625 7.796875 52.640625 10.59375 49.734375 
C 16.203125 44.109375 16.203125 42.5 16.203125 38.796875 
C 16.203125 32.921875 15.59375 27 11.296875 27 
C 8.59375 27 8.09375 30.640625 8 32.421875 
C 8 33.21875 7.90625 34 6.703125 34 
C 5.5 34 5.5 32.921875 5.5 32.515625 
C 5.5 30.75 6.40625 24.796875 11.296875 24.796875 
C 19.40625 24.796875 19.40625 37.484375 19.40625 39.796875 
C 19.40625 42.8125 19.203125 46.625 12.40625 52.9375 
C 9.59375 55.453125 8.5 56.953125 8.5 59.15625 
C 8.5 63.46875 11.40625 68.796875 16.59375 68.796875 
C 21.796875 68.796875 25.796875 60.96875 25.796875 49.234375 
L 25.796875 19.734375 
C 25.796875 18.8125 25.796875 0.1875 19.296875 0.1875 
C 15.59375 0.1875 11.90625 3.328125 9.796875 9.703125 
C 10.09375 9.703125 12.09375 10.421875 12.09375 11.328125 
C 12.09375 11.9375 11.296875 12.4375 11 12.4375 
C 10.59375 12.4375 9.296875 11.9375 8.90625 11.734375 
C 8.796875 12.34375 8.296875 13.453125 7.59375 13.453125 
C 7 13.453125 6.296875 12.640625 6.296875 12.140625 
C 6.296875 11.734375 6.5 11.125 6.703125 10.828125 
C 6.09375 10.71875 4.59375 10.109375 4.59375 9.296875 
C 4.59375 8.796875 5.203125 8.1875 5.703125 8.1875 
C 6 8.1875 7.203125 8.59375 7.5 8.796875 
C 10.703125 0 15.796875 -2 19.296875 -2 
C 26.40625 -2 34.296875 7.171875 34.296875 27.6875 
L 34.296875 34.890625 
L 45.796875 34.890625 
L 47.09375 12.953125 
C 47.09375 12.234375 46.703125 11.53125 46.703125 9.609375 
C 46.703125 3.53125 51.59375 -2 58.296875 -2 
C 59.59375 -2 59.796875 -2 61.703125 -0.609375 
L 68.90625 5.046875 
C 70.09375 6.0625 70.203125 6.171875 70.203125 6.5625 
C 70.203125 7.375 68.59375 7.984375 68.296875 7.984375 
C 67.796875 7.984375 64.203125 5.046875 59.703125 1.3125 
C 56.296875 3.53125 55.09375 6.875 55.09375 9.609375 
C 55.09375 11.53125 55.5 11.828125 55.5 12.953125 
C 55.5 15.875 55 21.140625 54.90625 24.28125 
C 54.703125 26.296875 54.296875 34.203125 54.203125 35.59375 
C 59.796875 37.390625 70.703125 43.8125 70.90625 43.90625 
C 71.203125 44.21875 71.40625 44.40625 71.40625 44.921875 
C 71.40625 45.109375 70.796875 46.3125 70.703125 46.421875 
z
M 63 43.109375 
C 53.796875 38 51.703125 38 48.796875 38 
L 34.296875 38 
L 34.296875 42.90625 
C 34.296875 49.828125 33.40625 53.75 32.296875 56.859375 
C 35.796875 66.484375 48.703125 68.296875 48.796875 68.296875 
C 49 68.296875 49.59375 67.28125 49.703125 67.1875 
z
" id="CMSY10-60"/>
      <path d="M 25.203125 75 
C 19.796875 69.484375 7.40625 56.671875 7.40625 25.046875 
C 7.40625 -6.6875 19.796875 -19.40625 25.203125 -25 
L 31.296875 -25 
C 19 -12.203125 15 5.71875 15 24.9375 
C 15 44.0625 18.796875 62.078125 31.296875 75 
z
" id="CMSS17-40"/>
      <path d="M 72.203125 69 
L 63.796875 69 
L 57.296875 39 
L 25.5 39 
L 32 69 
L 23.59375 69 
L 8.796875 0 
L 17.203125 0 
L 24.203125 32.890625 
L 56 32.890625 
L 49 0 
L 57.40625 0 
z
" id="CMSSI17-72"/>
      <path d="M 25.203125 -25 
L 25.203125 -18.90625 
L 16.59375 -18.90625 
L 16.59375 68.890625 
L 25.203125 68.890625 
L 25.203125 75 
L 9.296875 75 
L 9.296875 -25 
z
" id="CMSS17-91"/>
      <path d="M 71.796875 43 
L 64.203125 43 
L 53.296875 21.296875 
C 50.5 15.796875 47.5 9.1875 46.5 5.796875 
L 46.40625 5.796875 
C 46.5 7 46.59375 8.890625 46.59375 10.59375 
C 46.59375 15.5 45.90625 24.796875 45.796875 25.59375 
L 44.40625 43 
L 37.5 43 
C 36.296875 40.6875 22.203125 13.796875 20 5.796875 
L 19.90625 5.796875 
C 20.203125 7.59375 20.203125 8.796875 20.203125 12.390625 
C 20.203125 18 19.90625 22.1875 19.59375 25.796875 
L 18.203125 43 
L 10.40625 43 
L 14.296875 0 
L 21.90625 0 
C 22.59375 1.296875 25.296875 6.6875 26.5 9.09375 
C 31.203125 18.390625 38.203125 32.09375 39.296875 37.1875 
L 39.40625 37.1875 
C 39.09375 35.390625 39 32.796875 39 30.296875 
C 39 24.296875 39.296875 20.1875 39.796875 14.390625 
L 41 0 
L 49.703125 0 
z
" id="CMSSI17-119"/>
      <path d="M 17.90625 75 
L 2 75 
L 2 68.890625 
L 10.59375 68.890625 
L 10.59375 -18.90625 
L 2 -18.90625 
L 2 -25 
L 17.90625 -25 
z
" id="CMSS17-93"/>
      <path d="M 11.296875 -25 
C 16.703125 -19.5 29.09375 -6.6875 29.09375 24.9375 
C 29.09375 56.671875 16.703125 69.375 11.296875 75 
L 5.203125 75 
C 17.5 62.171875 21.5 44.265625 21.5 25.046875 
C 21.5 5.921875 17.703125 -12.09375 5.203125 -25 
z
" id="CMSS17-41"/>
     </defs>
     <g transform="translate(149.693041 333.926022)scale(0.2 -0.2)">
      <use transform="scale(0.996264)" xlink:href="#CMSY10-60"/>
      <use transform="translate(71.95259 0)scale(0.996264)" xlink:href="#CMSS17-40"/>
      <use transform="translate(108.386504 0)scale(0.996264)" xlink:href="#CMSSI17-72"/>
      <use transform="translate(183.028092 0)scale(0.996264)" xlink:href="#CMSS17-91"/>
      <use transform="translate(210.21353 0)scale(0.996264)" xlink:href="#CMSSI17-119"/>
      <use transform="translate(284.450477 0)scale(0.996264)" xlink:href="#CMSS17-93"/>
      <use transform="translate(311.635915 0)scale(0.996264)" xlink:href="#CMSS17-41"/>
     </g>
    </g>
   </g>
   <g id="matplotlib.axis_2"/>
   <g id="line2d_1">
    <path clip-path="url(#p2d9eb2f673)" d="M 57.681818 302.645455 
L 85.254848 302.529377 
L 92.966165 302.279296 
L 98.090132 301.900742 
L 102.047255 301.393015 
L 105.319491 300.755756 
L 108.160502 299.981095 
L 110.69712 299.062953 
L 113.030808 297.982657 
L 115.186932 296.741754 
L 117.241592 295.302763 
L 119.220154 293.642576 
L 121.122617 291.755942 
L 122.999714 289.579608 
L 124.851444 287.090615 
L 126.703175 284.225956 
L 128.580272 280.901807 
L 130.457368 277.117988 
L 132.359831 272.778083 
L 134.313027 267.758563 
L 136.316954 261.982131 
L 138.396981 255.286438 
L 140.553105 247.572149 
L 142.810695 238.642483 
L 145.195115 228.276949 
L 147.757098 216.117844 
L 150.572744 201.645606 
L 153.84498 183.616088 
L 158.360159 157.362609 
L 165.132927 118.038174 
L 168.126135 102.032233 
L 170.535922 90.302983 
L 172.615948 81.241709 
L 174.442312 74.237274 
L 176.065747 68.84522 
L 177.536986 64.692343 
L 178.856027 61.596926 
L 180.048237 59.331359 
L 181.138982 57.714456 
L 182.128263 56.632442 
L 183.016079 55.977043 
L 183.827796 55.641277 
L 184.588782 55.556028 
L 185.349767 55.693153 
L 186.136118 56.068065 
L 186.973202 56.72642 
L 187.886384 57.747036 
L 188.875665 59.20429 
L 189.96641 61.22704 
L 191.15862 63.924265 
L 192.477661 67.47955 
L 193.923533 72.033545 
L 195.546968 77.913814 
L 197.347967 85.306279 
L 199.37726 94.605486 
L 201.736315 106.501437 
L 204.602692 122.157484 
L 208.686646 145.828027 
L 216.271132 189.890493 
L 219.619466 207.905235 
L 222.485844 222.144316 
L 225.073194 233.908238 
L 227.48298 243.86601 
L 229.765936 252.385771 
L 231.947427 259.696871 
L 234.052819 266.000628 
L 236.107479 271.46718 
L 238.111407 276.180074 
L 240.064602 280.222301 
L 241.992431 283.716616 
L 243.92026 286.758469 
L 245.848089 289.388337 
L 247.775919 291.646624 
L 249.729114 293.596123 
L 251.733041 295.283265 
L 253.787701 296.725598 
L 255.943826 297.969498 
L 258.252148 299.042043 
L 260.738033 299.948832 
L 263.47758 300.708001 
L 266.572253 301.330525 
L 270.199615 301.826426 
L 274.638696 302.19937 
L 280.498282 302.45488 
L 289.427175 302.598887 
L 309.770845 302.645128 
L 311.318182 302.645455 
L 311.318182 302.645455 
" style="fill:none;stroke:#000000;stroke-linecap:square;stroke-width:1.5;"/>
   </g>
   <g id="patch_3">
    <path d="M 45 315 
L 45 43.2 
" style="fill:none;stroke:#000000;stroke-linecap:square;stroke-linejoin:miter;stroke-width:0.8;"/>
   </g>
   <g id="patch_4">
    <path d="M 324 315 
L 324 43.2 
" style="fill:none;stroke:#000000;stroke-linecap:square;stroke-linejoin:miter;stroke-width:0.8;"/>
   </g>
   <g id="patch_5">
    <path d="M 45 315 
L 324 315 
" style="fill:none;stroke:#000000;stroke-linecap:square;stroke-linejoin:miter;stroke-width:0.8;"/>
   </g>
   <g id="patch_6">
    <path d="M 45 43.2 
L 324 43.2 
" style="fill:none;stroke:#000000;stroke-linecap:square;stroke-linejoin:miter;stroke-width:0.8;"/>
   </g>
  </g>
 </g>
 <defs>
  <clipPath id="p2d9eb2f673">
   <rect height="271.8" width="279" x="45" y="43.2"/>
  </clipPath>
 </defs>
</svg>
